# xmcd
#
# Track frame offsets: 
#        150
#        15811
#        31361
#        52454
#        69605
#        85730
#        102402
#        120290
#        138063
#        154895
#
# Disc length: 2295 seconds
#
# Revision: 1
# Processed by: cddbd v1.5.2PL0 Copyright (c) Steve Scherf et al.
# Submitted via: ExactAudioCopy v0.95b4
#
DISCID=7908f50a
DTITLE=ฮักข้อยปล่อยเขา - จุ๋ม ชนิดา
DYEAR=2007
DGENRE=Country
TTITLE0=ฮักข้อยปล่อยเขา
TTITLE1=แก้มสาวชาวไร่
TTITLE2=ผู้บ่าวขี้ตั๋ว
TTITLE3=อวยพรทั้งน้ำตา
TTITLE4=ซังคนหลอแหล
TTITLE5=สุดทางที่กรุงเทพฯ
TTITLE6=อกหักหย้อนฮักอ้ายแฮง
TTITLE7=คอยวันหมั้น
TTITLE8=ใจน้อยเพราะคอยอ้าย
TTITLE9=อ้ายฮักบ่จริง
EXTD=
EXTT0=
EXTT1=
EXTT2=
EXTT3=
EXTT4=
EXTT5=
EXTT6=
EXTT7=
EXTT8=
EXTT9=
PLAYORDER=
